<svg version="1.1" id="Layer_1" xmlns="http://www.w3.org/2000/svg" xmlns:xlink="http://www.w3.org/1999/xlink" x="0px" y="0px"
	 width="100%" viewBox="0 0 67 65" enable-background="new 0 0 67 65" xml:space="preserve">
<path fill="#070A13" opacity="1.000000" stroke="none" 
	d="
M1.000000,25.000038 
	C1.000000,16.666721 1.000000,8.833388 1.000000,1.000041 
	C23.333315,1.000028 45.666630,1.000028 67.999954,1.000014 
	C67.999969,22.666649 67.999969,44.333298 67.999985,65.999954 
	C45.666687,65.999969 23.333370,65.999969 1.000028,65.999985 
	C1.000000,52.500008 1.000000,39.000015 1.000000,25.000038 
M34.829277,63.969727 
	C36.220123,63.924351 37.610966,63.878979 39.795437,63.970501 
	C40.865055,63.924599 41.934673,63.878700 43.829773,63.970371 
	C45.220383,63.924885 46.610989,63.879398 48.794388,63.971909 
	C49.863598,63.925652 50.932808,63.879395 52.708595,63.955921 
	C53.805420,63.590908 54.902248,63.225895 56.673939,63.010155 
	C58.152847,61.689220 59.631752,60.368286 61.759991,58.665901 
	C62.507172,55.699978 63.824730,52.748211 63.898762,49.765579 
	C64.161957,39.162029 64.315819,28.533232 63.819805,17.946384 
	C63.660332,14.542532 61.363941,11.238798 59.793060,7.294595 
	C58.528961,6.585130 57.264862,5.875664 55.305096,5.013793 
	C54.204224,4.731507 53.103355,4.449222 51.209946,4.026379 
	C50.140388,4.073095 49.070835,4.119812 47.176109,4.026910 
	C45.785202,4.073653 44.394299,4.120397 42.177467,4.026958 
	C40.785034,4.073298 39.392605,4.119639 37.134960,4.025584 
	C35.091877,4.072742 33.048790,4.119901 30.156311,4.027604 
	C28.438608,4.074094 26.720903,4.120584 24.177219,4.028705 
	C22.785168,4.074650 21.393118,4.120595 19.174185,4.028841 
	C17.782330,4.086179 16.390474,4.143517 14.295403,4.084300 
	C12.849174,4.684990 11.402945,5.285681 9.264479,5.996410 
	C7.804638,7.650386 6.344797,9.304362 4.195900,11.477145 
	C4.143560,25.952414 4.079106,40.427677 4.075172,54.902962 
	C4.074979,55.615845 4.603022,56.328880 4.997978,57.722294 
	C6.666361,59.425911 8.334743,61.129528 10.680099,63.179935 
	C12.119310,63.387100 13.558522,63.594269 15.788547,63.961899 
	C16.859961,63.918926 17.931374,63.875954 19.828812,63.968327 
	C21.219925,63.923325 22.611038,63.878323 24.828671,63.968250 
	C26.220324,63.923077 27.611979,63.877903 29.829552,63.968746 
	C31.220863,63.923557 32.612175,63.878372 34.829277,63.969727 
z"/>
<path fill="#425DED" opacity="1.000000" stroke="none" 
	d="
M14.997734,63.801437 
	C13.558522,63.594269 12.119310,63.387100 10.341156,62.548561 
	C9.987047,43.240250 9.971881,24.563311 9.956715,5.886372 
	C11.402945,5.285681 12.849174,4.684990 14.647367,4.598376 
	C14.998799,24.675447 14.998267,44.238441 14.997734,63.801437 
z"/>
<path fill="#9026F9" opacity="1.000000" stroke="none" 
	d="
M56.000763,5.166198 
	C57.264862,5.875664 58.528961,6.585130 59.910286,8.067370 
	C60.018028,23.485361 59.964417,38.130833 60.048710,52.775505 
	C60.060749,54.868088 60.740128,56.956829 61.110657,59.047348 
	C59.631752,60.368286 58.152847,61.689220 56.241032,62.537670 
	C55.539360,58.453396 54.997303,54.837666 55.049294,51.230499 
	C55.270611,35.874352 55.667786,20.520737 56.000763,5.166198 
z"/>
<path fill="#4E59EE" opacity="1.000000" stroke="none" 
	d="
M15.393141,63.881668 
	C14.998267,44.238441 14.998799,24.675447 14.998976,4.656653 
	C16.390474,4.143517 17.782330,4.086179 19.587318,4.555573 
	C20.370693,11.733529 20.740934,18.384752 21.042408,25.437162 
	C20.924753,29.224735 20.875864,32.611122 20.517487,36.212883 
	C19.806210,38.134056 19.087065,39.834377 19.057549,41.546589 
	C18.929520,48.973492 19.002735,56.403866 19.002787,63.832977 
	C17.931374,63.875954 16.859961,63.918926 15.393141,63.881668 
z"/>
<path fill="#8635F6" opacity="1.000000" stroke="none" 
	d="
M48.001278,4.166528 
	C49.070835,4.119812 50.140388,4.073095 51.605667,4.554702 
	C52.001602,24.666395 52.001812,44.249763 52.002018,63.833138 
	C50.932808,63.879395 49.863598,63.925652 48.397644,63.444824 
	C47.998665,56.292542 48.141918,49.661919 47.895241,43.045837 
	C47.830940,41.321388 46.551308,39.642254 45.889614,37.526085 
	C45.945065,33.079792 45.940765,29.049721 46.233841,24.768412 
	C47.019592,22.671194 47.853947,20.839207 47.929295,18.976517 
	C48.128716,14.046951 47.999630,9.104095 48.001278,4.166528 
z"/>
<path fill="#951AF9" opacity="1.000000" stroke="none" 
	d="
M61.435326,58.856625 
	C60.740128,56.956829 60.060749,54.868088 60.048710,52.775505 
	C59.964417,38.130833 60.018028,23.485361 60.036339,8.364704 
	C61.363941,11.238798 63.660332,14.542532 63.819805,17.946384 
	C64.315819,28.533232 64.161957,39.162029 63.898762,49.765579 
	C63.824730,52.748211 62.507172,55.699978 61.435326,58.856625 
z"/>
<path fill="#8B2EF7" opacity="1.000000" stroke="none" 
	d="
M52.355309,63.894527 
	C52.001812,44.249763 52.001602,24.666395 52.001938,4.624981 
	C53.103355,4.449222 54.204224,4.731507 55.652931,5.089995 
	C55.667786,20.520737 55.270611,35.874352 55.049294,51.230499 
	C54.997303,54.837666 55.539360,58.453396 55.903599,62.463036 
	C54.902248,63.225895 53.805420,63.590908 52.355309,63.894527 
z"/>
<path fill="#3660EC" opacity="1.000000" stroke="none" 
	d="
M9.610597,5.941391 
	C9.971881,24.563311 9.987047,43.240250 10.002670,62.375168 
	C8.334743,61.129528 6.666361,59.425911 5.279567,57.185471 
	C6.032399,55.463497 6.903792,54.281559 6.913331,53.092709 
	C7.014871,40.436958 7.044782,27.779318 6.889969,15.124698 
	C6.872882,13.727943 5.583994,12.346749 4.884955,10.958338 
	C6.344797,9.304362 7.804638,7.650386 9.610597,5.941391 
z"/>
<path fill="#2D61EB" opacity="1.000000" stroke="none" 
	d="
M4.540428,11.217741 
	C5.583994,12.346749 6.872882,13.727943 6.889969,15.124698 
	C7.044782,27.779318 7.014871,40.436958 6.913331,53.092709 
	C6.903792,54.281559 6.032399,55.463497 5.223124,56.845245 
	C4.603022,56.328880 4.074979,55.615845 4.075172,54.902962 
	C4.079106,40.427677 4.143560,25.952414 4.540428,11.217741 
z"/>
<path fill="#5756EF" opacity="1.000000" stroke="none" 
	d="
M19.415798,63.900650 
	C19.002735,56.403866 18.929520,48.973492 19.057549,41.546589 
	C19.087065,39.834377 19.806210,38.134056 20.671719,36.524818 
	C22.438862,38.703079 23.742285,40.784782 24.891069,43.262360 
	C24.491671,50.383259 24.246910,57.108292 24.002151,63.833321 
	C22.611038,63.878323 21.219925,63.923325 19.415798,63.900650 
z"/>
<path fill="#803BF5" opacity="1.000000" stroke="none" 
	d="
M45.829865,37.942307 
	C46.551308,39.642254 47.830940,41.321388 47.895241,43.045837 
	C48.141918,49.661919 47.998665,56.292542 48.001247,63.375824 
	C46.610989,63.879398 45.220383,63.924885 43.416309,63.443840 
	C42.611923,56.591824 42.221001,50.266335 41.894707,43.603027 
	C43.249512,41.490902 44.539688,39.716606 45.829865,37.942307 
z"/>
<path fill="#803CF5" opacity="1.000000" stroke="none" 
	d="
M47.588692,4.096719 
	C47.999630,9.104095 48.128716,14.046951 47.929295,18.976517 
	C47.853947,20.839207 47.019592,22.671194 45.955177,24.601498 
	C44.240604,23.161118 43.102070,21.636415 42.116707,19.718227 
	C42.514381,14.272208 42.758888,9.219674 43.003391,4.167141 
	C44.394299,4.120397 45.785202,4.073653 47.588692,4.096719 
z"/>
<path fill="#5955F0" opacity="1.000000" stroke="none" 
	d="
M21.111176,25.035976 
	C20.740934,18.384752 20.370693,11.733529 20.000759,4.624423 
	C21.393118,4.120595 22.785168,4.074650 24.589638,4.550817 
	C25.701965,9.729441 26.401873,14.385952 26.933983,19.341557 
	C24.881180,21.439091 22.996178,23.237534 21.111176,25.035976 
z"/>
<path fill="#6251F1" opacity="1.000000" stroke="none" 
	d="
M24.415411,63.900787 
	C24.246910,57.108292 24.491671,50.383259 25.174622,43.440079 
	C27.095802,45.091717 28.578791,46.961510 29.966240,49.247189 
	C29.581678,54.386295 29.292654,59.109512 29.003632,63.832733 
	C27.611979,63.877903 26.220324,63.923077 24.415411,63.900787 
z"/>
<path fill="#6F49F3" opacity="1.000000" stroke="none" 
	d="
M31.005707,4.167060 
	C33.048790,4.119901 35.091877,4.072742 37.567368,4.543367 
	C37.667690,9.316545 37.335602,13.571940 36.589710,17.893074 
	C34.783405,17.915031 33.390903,17.871252 31.902281,17.435131 
	C31.539341,12.750881 31.272524,8.458970 31.005707,4.167060 
z"/>
<path fill="#6450F1" opacity="1.000000" stroke="none" 
	d="
M30.581009,4.097332 
	C31.272524,8.458970 31.539341,12.750881 31.539015,17.501719 
	C29.881842,18.321251 28.491810,18.681856 27.101780,19.042463 
	C26.401873,14.385952 25.701965,9.729441 25.002628,4.620002 
	C26.720903,4.120584 28.438608,4.074094 30.581009,4.097332 
z"/>
<path fill="#7941F4" opacity="1.000000" stroke="none" 
	d="
M41.830078,43.940849 
	C42.221001,50.266335 42.611923,56.591824 43.003571,63.375053 
	C41.934673,63.878700 40.865055,63.924599 39.398201,63.448204 
	C38.655418,57.913364 38.309864,52.900826 38.089455,47.602928 
	C39.419758,46.191994 40.624916,45.066422 41.830078,43.940849 
z"/>
<path fill="#7842F4" opacity="1.000000" stroke="none" 
	d="
M37.003513,17.827335 
	C37.335602,13.571940 37.667690,9.316545 37.999977,4.613564 
	C39.392605,4.119639 40.785034,4.073298 42.590431,4.097050 
	C42.758888,9.219674 42.514381,14.272208 41.771271,19.660446 
	C39.849613,19.273212 38.426563,18.550274 37.003513,17.827335 
z"/>
<path fill="#7247F3" opacity="1.000000" stroke="none" 
	d="
M37.964314,47.888287 
	C38.309864,52.900826 38.655418,57.913364 39.001389,63.379753 
	C37.610966,63.878979 36.220123,63.924351 34.415756,63.447674 
	C33.989677,58.913162 33.977116,54.900700 34.117725,50.604511 
	C35.502033,49.509949 36.733173,48.699116 37.964314,47.888287 
z"/>
<path fill="#6B4CF2" opacity="1.000000" stroke="none" 
	d="
M33.964554,50.888241 
	C33.977116,54.900700 33.989677,58.913162 34.002861,63.379402 
	C32.612175,63.878372 31.220863,63.923557 29.416592,63.900742 
	C29.292654,59.109512 29.581678,54.386295 30.260260,49.379097 
	C31.754730,49.692822 32.859642,50.290531 33.964554,50.888241 
z"/>
<path fill="#FDFCFF" opacity="1.000000" stroke="none" 
	d="
M34.117725,50.604511 
	C32.859642,50.290531 31.754730,49.692822 30.355801,48.963211 
	C28.578791,46.961510 27.095802,45.091717 25.329260,43.044205 
	C23.742285,40.784782 22.438862,38.703079 20.981205,36.309441 
	C20.875864,32.611122 20.924753,29.224735 21.042408,25.437164 
	C22.996178,23.237534 24.881180,21.439091 26.933983,19.341557 
	C28.491810,18.681856 29.881842,18.321251 31.635138,17.894058 
	C33.390903,17.871252 34.783405,17.915031 36.589710,17.893074 
	C38.426563,18.550274 39.849613,19.273212 41.618099,20.053930 
	C43.102070,21.636415 44.240604,23.161118 45.657799,24.852734 
	C45.940765,29.049721 45.945065,33.079792 45.889614,37.526085 
	C44.539688,39.716606 43.249512,41.490902 41.894707,43.603027 
	C40.624916,45.066422 39.419758,46.191994 38.089455,47.602928 
	C36.733173,48.699116 35.502033,49.509949 34.117725,50.604511 
M39.734356,40.742977 
	C46.347763,33.284286 45.283413,24.993700 36.917561,21.512440 
	C34.943539,21.412815 32.969517,21.313190 30.277376,21.107794 
	C21.327433,24.729525 21.354542,35.343685 29.038496,42.730099 
	C30.655293,44.226391 32.272087,45.722683 33.988674,47.311325 
	C35.690563,45.632259 37.133343,44.300743 38.449959,42.854378 
	C38.849655,42.415287 38.900883,41.658993 39.734356,40.742977 
z"/>
<path fill="#6552F1" opacity="1.000000" stroke="none" 
	d="
M28.914494,42.037998 
	C21.354542,35.343685 21.327433,24.729525 30.648960,21.503712 
	C31.385702,22.948910 31.750862,23.998188 31.927858,25.360470 
	C26.636288,28.797237 26.467127,31.527596 31.034161,37.264244 
	C30.319916,39.114952 29.617205,40.576473 28.914494,42.037998 
z"/>
<path fill="#7944F4" opacity="1.000000" stroke="none" 
	d="
M37.341675,22.105539 
	C45.283413,24.993700 46.347763,33.284286 39.100716,40.721321 
	C37.963650,39.090870 37.460224,37.482082 37.107124,35.568489 
	C41.084003,32.087246 39.709152,29.081553 36.992069,25.617920 
	C37.131767,24.111698 37.236721,23.108618 37.341675,22.105539 
z"/>
<path fill="#704CF3" opacity="1.000000" stroke="none" 
	d="
M36.956799,35.873291 
	C37.460224,37.482082 37.963650,39.090870 38.789398,40.873825 
	C38.900883,41.658993 38.849655,42.415287 38.449959,42.854378 
	C37.133343,44.300743 35.690563,45.632259 33.988674,47.311325 
	C32.272087,45.722683 30.655293,44.226391 28.976494,42.384048 
	C29.617205,40.576473 30.319916,39.114952 31.422846,37.311180 
	C33.534309,36.603718 35.245552,36.238503 36.956799,35.873291 
z"/>
<path fill="#6F4AF3" opacity="1.000000" stroke="none" 
	d="
M37.129616,21.808990 
	C37.236721,23.108618 37.131767,24.111698 36.632519,25.558914 
	C34.864159,25.684523 33.490093,25.365995 32.116024,25.047466 
	C31.750862,23.998188 31.385702,22.948910 31.008018,21.556599 
	C32.969517,21.313190 34.943539,21.412815 37.129616,21.808990 
z"/>
<path fill="#FFFFFF" opacity="1.000000" stroke="none" 
	d="
M31.927858,25.360472 
	C33.490093,25.365995 34.864159,25.684523 36.597778,26.062057 
	C39.709152,29.081553 41.084003,32.087246 37.107124,35.568485 
	C35.245552,36.238503 33.534309,36.603718 31.434380,36.921993 
	C26.467127,31.527596 26.636288,28.797237 31.927858,25.360472 
z"/>
</svg>